# xmcd
#
# Track frame offsets: 
#        150
#        13048
#        26948
#        34893
#        46810
#        57518
#        68455
#        79010
#        88893
#        99705
#        109780
#        121583
#        130750
#        142018
#        152980
#        162873
#        174105
#        185798
#        196013
#        207068
#        219698
#        230798
#        242825
#        254835
#        267355
#
# Disc length: 3697 seconds
#
# Revision: 7
# Processed by: cddbd v1.5.2PL0 Copyright (c) Steve Scherf et al.
# Submitted via: ExactAudioCopy v1.0b3
#
DISCID=6a0e6f19
DTITLE=Various Artist - Rock'N'Roll - CD 01
DYEAR=1992
DGENRE=Rock and Roll
TTITLE0=Heinz - Just Like Eddie
TTITLE1=Fats Domino - Blueberry Hill
TTITLE2=Ricky Valance - Yakety Yak
TTITLE3=Bill Haley and The Comets - Rock Around The Clock
TTITLE4=Frankie Avalon - Venus
TTITLE5=Ricky Valance - Runaway
TTITLE6=Chubby Checker - Let's Twist Again
TTITLE7=The Angels - My Boyfriend's Back
TTITLE8=Little Richard - Keep A Knockin'
TTITLE9=The Chiffons - Sweet Talking Guy
TTITLE10=Lloyd Price - Personality
TTITLE11=Del Shannon - Hats Off To Larry
TTITLE12=Fats Domino - Blue Monday
TTITLE13=Ricky Valance - Shakin' All Over
TTITLE14=The Champs - Tequila
TTITLE15=Little Richard - Tutti Frutti
TTITLE16=Danny and The Juniors - Rock'n'Roll Is Here To Stay
TTITLE17=Huey Piano Smith - Rockin' Pneumonia And The Boogie Woogie Fl
TTITLE17=u
TTITLE18=Johnny and The Hurricanes - CrossFire
TTITLE19=The Crystals - Then He Kissed Me
TTITLE20=Bobby Vee - Rubber Ball
TTITLE21=Gene Vincent - Be Bop A Lula
TTITLE22=Del Shannon - Runaround Sue
TTITLE23=Ricky Valance - Tell Laura I Love Her
TTITLE24=Little Richard - Good Golly Miss Molly
EXTD=
EXTT0=
EXTT1=
EXTT2=
EXTT3=
EXTT4=
EXTT5=
EXTT6=
EXTT7=
EXTT8=
EXTT9=
EXTT10=
EXTT11=
EXTT12=
EXTT13=
EXTT14=
EXTT15=
EXTT16=
EXTT17=
EXTT18=
EXTT19=
EXTT20=
EXTT21=
EXTT22=
EXTT23=
EXTT24=
PLAYORDER=
